# File created by Blade
# Date/Time:  Tue Apr 07 21:33:03 2015
# Frame Rate: 120.000 fps
#------------------------------------------------------
:FULLY-SPECIFIED
:DEGREES
829
root -7.773240 34.400861 7.118354 9.109206 -46.175112 16.596013
Spine -4.127071 -3.380347 -10.059633
Head 17.812689 -16.916746 -3.177573
LeftShoulder -19.110041 43.779007 14.887273
LeftArm 55.668645 -27.498925 -85.685730
LeftForeArm -10.184461 -0.000000 2.528439
LeftHand 18.901436 -0.000000 32.774433
LeftHandThumb1 -26.253704 0.000000 33.147579
RightShoulder -4.254044 4.642334 -30.102543
RightArm 17.715043 20.460045 58.512053
RightForeArm -5.105222 -0.000000 31.603682
RightHand 16.096522 -0.000000 -21.529944
RightHandThumb1 -24.326973 -0.000000 -32.862282
LeftUpLeg -29.901715 5.325523 -3.819314
LeftLeg -3.059088 -0.000000 0.000000
LeftFoot 18.278812 16.015518 -24.422482
LeftToeBase -1.242082 -0.000000 0.000000
RightUpLeg -25.883922 -9.150416 -6.124440
RightLeg 6.600861 -0.000000 -0.000000
RightFoot 5.926985 -19.383628 -3.447479
RightToeBase -8.234641 -0.000000 0.000000
830
root -7.876404 34.345384 7.244163 9.069108 -46.959176 15.858772
Spine -3.706910 -2.563302 -9.861843
Head 18.285540 -16.661740 -2.913666
LeftShoulder -19.232877 43.693846 15.032806
LeftArm 55.642484 -27.864549 -84.929433
LeftForeArm -10.532114 -0.000000 2.350551
LeftHand 19.178565 -0.000000 32.140563
LeftHandThumb1 -26.253704 0.000000 33.147579
RightShoulder -4.204537 4.978136 -30.211467
RightArm 18.108212 20.435493 58.533993
RightForeArm -5.411021 -0.000000 32.098102
RightHand 15.857545 0.000000 -21.245909
RightHandThumb1 -24.326973 -0.000000 -32.862282
LeftUpLeg -30.625970 4.524940 -3.742130
LeftLeg -2.918228 -0.000000 0.000000
LeftFoot 18.225520 17.315638 -25.008276
LeftToeBase -0.365768 -0.000000 0.000000
RightUpLeg -25.137206 -9.478086 -5.268373
RightLeg 6.185927 -0.000000 -0.000000
RightFoot 5.745858 -18.778317 -3.577992
RightToeBase -8.339958 -0.000000 0.000000
831
root -7.977155 34.271792 7.366657 9.114548 -47.359276 15.056704
Spine -3.279716 -2.174399 -9.504155
Head 18.726847 -16.391882 -2.789422
LeftShoulder -19.390245 43.499896 15.090856
LeftArm 55.552322 -28.429787 -84.351945
LeftForeArm -10.176735 0.000000 2.421977
LeftHand 18.947947 -0.000000 31.470274
LeftHandThumb1 -26.253704 0.000000 33.147579
RightShoulder -4.166834 5.357617 -30.431320
RightArm 18.427888 20.479977 58.614823
RightForeArm -5.862368 -0.000000 32.639616
RightHand 15.717464 -0.000000 -20.944066
RightHandThumb1 -24.326973 -0.000000 -32.862282
LeftUpLeg -31.364232 3.356522 -3.431217
LeftLeg -2.766896 -0.000000 0.000000
LeftFoot 18.507106 18.158014 -25.022833
LeftToeBase -0.417893 -0.000000 0.000000
RightUpLeg -24.461094 -10.073680 -4.389901
RightLeg 6.076855 -0.000000 -0.000000
RightFoot 5.183384 -18.204478 -3.724371
RightToeBase -8.473619 -0.000000 0.000000
832
root -8.084461 34.184188 7.494761 9.059793 -47.688252 14.359576
Spine -2.840111 -1.852170 -9.250189
Head 19.097138 -16.154972 -2.606091
LeftShoulder -19.525402 43.309107 15.166947
LeftArm 55.535462 -29.189127 -84.026987
LeftForeArm -9.700852 -0.000000 2.661743
LeftHand 18.533639 -0.000000 30.889513
LeftHandThumb1 -26.253704 0.000000 33.147579
RightShoulder -4.139652 5.717041 -30.603509
RightArm 18.665735 20.576439 58.629620
RightForeArm -6.177047 -0.000000 33.200094
RightHand 15.787879 -0.000000 -20.717893
RightHandThumb1 -24.326973 -0.000000 -32.862282
LeftUpLeg -31.992371 2.197353 -3.114666
LeftLeg -2.657429 -0.000000 0.000000
LeftFoot 18.769308 18.366730 -24.820003
LeftToeBase -0.064409 -0.000000 0.000000
RightUpLeg -23.730959 -10.379137 -3.771394
RightLeg 6.113156 -0.000000 -0.000000
RightFoot 4.294456 -17.929508 -3.735922
RightToeBase -8.298103 -0.000000 0.000000
833
root -8.202761 34.083531 7.638148 8.882486 -47.847949 13.793474
Spine -2.402846 -1.637870 -9.075198
Head 19.498383 -16.033424 -2.384018
LeftShoulder -19.609785 43.179521 15.215745
LeftArm 55.613000 -29.995907 -83.750762
LeftForeArm -9.213889 -0.000000 3.018824
LeftHand 18.112494 0.000000 30.512635
LeftHandThumb1 -26.253704 0.000000 33.147579
RightShoulder -4.235518 5.903321 -30.751502
RightArm 18.927835 20.524515 58.548646
RightForeArm -6.453112 0.000000 33.730401
RightHand 15.721792 0.000000 -20.790794
RightHandThumb1 -24.326973 -0.000000 -32.862282
LeftUpLeg -32.496358 0.916788 -2.776118
LeftLeg -2.586918 -0.000000 0.000000
LeftFoot 18.587564 18.344254 -24.881656
LeftToeBase -0.237673 -0.000000 0.000000
RightUpLeg -22.878398 -10.550391 -3.403742
RightLeg 6.207519 -0.000000 -0.000000
RightFoot 3.205953 -17.883033 -3.706201
RightToeBase -8.221182 -0.000000 0.000000
834
root -8.327505 33.974914 7.785752 8.673809 -48.005800 13.361167
Spine -2.084235 -1.476810 -9.047783
Head 19.911956 -15.930363 -2.079013
LeftShoulder -19.627169 43.098131 15.368634
LeftArm 55.723110 -30.933752 -83.709778
LeftForeArm -8.462410 -0.000000 3.479987
LeftHand 18.001752 -0.000000 30.069433
LeftHandThumb1 -26.253704 0.000000 33.147579
RightShoulder -4.365122 6.051508 -30.831003
RightArm 19.210791 20.513414 58.519891
RightForeArm -6.878589 -0.000000 34.234822
RightHand 15.678362 -0.000000 -20.883920
RightHandThumb1 -24.326973 -0.000000 -32.862282
LeftUpLeg -32.992345 -0.402093 -2.390200
LeftLeg -2.569306 -0.000000 0.000000
LeftFoot 17.921844 18.261264 -25.253590
LeftToeBase -0.873814 -0.000000 0.000000
RightUpLeg -22.078418 -10.468443 -3.251193
RightLeg 6.401160 -0.000000 -0.000000
RightFoot 1.834820 -18.028256 -3.531916
RightToeBase -7.980984 -0.000000 0.000000
835
root -8.457966 33.864430 7.939629 8.452111 -48.147626 12.999652
Spine -1.826100 -1.441360 -9.089571
Head 20.260602 -15.811822 -1.709651
LeftShoulder -19.606692 42.989936 15.557678
LeftArm 55.670095 -31.977332 -83.721563
LeftForeArm -7.914599 -0.000000 4.101259
LeftHand 17.732223 -0.000000 29.931977
LeftHandThumb1 -26.253704 0.000000 33.147579
RightShoulder -4.540227 6.181808 -30.830904
RightArm 19.544336 20.250132 58.340920
RightForeArm -7.176743 0.000000 34.708196
RightHand 15.539060 -0.000000 -21.332573
RightHandThumb1 -24.326973 -0.000000 -32.862282
LeftUpLeg -33.467722 -1.621048 -2.029785
LeftLeg -2.611598 -0.000000 0.000000
LeftFoot 16.985206 18.193930 -25.934734
LeftToeBase -1.915984 -0.000000 0.000000
RightUpLeg -21.275741 -10.249704 -3.207698
RightLeg 6.623043 -0.000000 -0.000000
RightFoot 0.233360 -18.295037 -3.306970
RightToeBase -7.326485 -0.000000 0.000000
836
root -8.590310 33.754120 8.093386 8.279548 -48.379551 12.682482
Spine -1.681497 -1.410769 -9.195370
Head 20.585217 -15.709828 -1.329149
LeftShoulder -19.629937 42.918655 15.699029
LeftArm 55.579868 -32.950490 -83.642954
LeftForeArm -7.601013 -0.000000 4.710325
LeftHand 17.563639 -0.000000 29.987097
LeftHandThumb1 -26.253704 0.000000 33.147579
RightShoulder -4.722543 6.258609 -30.790770
RightArm 19.925356 20.098211 58.204335
RightForeArm -7.597357 -0.000000 35.155220
RightHand 15.639890 -0.000000 -21.408251
RightHandThumb1 -24.326973 -0.000000 -32.862282
LeftUpLeg -33.910072 -2.764083 -1.596493
LeftLeg -2.785657 -0.000000 0.000000
LeftFoot 16.127712 18.395138 -26.703004
LeftToeBase -3.373579 -0.000000 0.000000
RightUpLeg -20.534050 -9.795850 -3.262527
RightLeg 6.853956 -0.000000 -0.000000
RightFoot -1.475168 -18.607633 -2.903514
RightToeBase -6.487571 -0.000000 0.000000
837
root -8.725277 33.644813 8.243559 8.239411 -48.646731 12.320361
Spine -1.671436 -1.407364 -9.288968
Head 20.898502 -15.623654 -0.963934
LeftShoulder -19.518803 42.846218 15.895875
LeftArm 55.287562 -33.924576 -83.423860
LeftForeArm -7.492184 0.000000 5.333202
LeftHand 17.561869 -0.000000 30.436401
LeftHandThumb1 -26.253704 0.000000 33.147579
RightShoulder -4.878636 6.079753 -30.715729
RightArm 20.446674 20.020865 58.106391
RightForeArm -8.155848 -0.000000 35.681640
RightHand 15.341456 -0.000000 -21.349606
RightHandThumb1 -24.326973 -0.000000 -32.862282
LeftUpLeg -34.376518 -3.658948 -1.167561
LeftLeg -2.966364 -0.000000 0.000000
LeftFoot 15.756154 18.744917 -27.219181
LeftToeBase -4.951369 -0.000000 0.000000
RightUpLeg -19.908811 -9.262219 -3.294113
RightLeg 7.159263 -0.000000 -0.000000
RightFoot -3.288371 -18.959553 -2.275523
RightToeBase -5.763302 -0.000000 0.000000
